<?xml version="1.0" encoding="utf-8"?>
<!-- Generator: Adobe Illustrator 23.0.2, SVG Export Plug-In . SVG Version: 6.00 Build 0)  -->
<svg version="1.1" id="Layer_1" xmlns="http://www.w3.org/2000/svg" xmlns:xlink="http://www.w3.org/1999/xlink" x="0px" y="0px"
	 viewBox="0 0 98.9797 230.4451" enable-background="new 0 0 98.9797 230.4451" xml:space="preserve">
<g>
	<path d="M37.2883,41.9249c-3.619-2.1699-6.6161-5.2728-8.6567-8.9752c-2.3491,3.2593-3.9207,7.8969-3.9695,14.5538
		c3.2361-0.8271,7.3281-1.5714,12.4452-2.0468C37.1473,44.2371,37.1986,43.0502,37.2883,41.9249z"/>
	<path d="M76.0913,230.4451c0.3467,0,0.6963-0.0186,1.0479-0.0547c4.6112-0.4804,8.1516-4.025,8.8348-8.3992
		c-5.1508,1.3641-12.1105,2.8809-18.64,3.2476C69.0504,228.375,72.3741,230.4451,76.0913,230.4451z"/>
	<path d="M21.8521,230.3904c0.3516,0.0361,0.7012,0.0547,1.0479,0.0547c3.7162,0,7.0399-2.0698,8.7568-5.2056
		c-6.5273-0.3651-13.4864-1.8808-18.639-3.2448C13.7023,226.3672,17.2421,229.9101,21.8521,230.3904z"/>
	<path d="M49.4908,47.9184c-0.0002,0-0.0004,0-0.0004,0h-0.0004c-4.3976,0-8.256,0.1846-11.6514,0.4874l0.3387,1.4992
		c0.0354,0.159,3.4339,14.9849,10.6562,30.2891c10.9439-18.5789,13.8809-30.7172,13.9249-30.9063
		c0.0577-0.2499,0.1536-0.4791,0.2658-0.6971c-3.827-0.4123-8.2995-0.6721-13.5302-0.6723
		C49.4929,47.9185,49.4918,47.9184,49.4908,47.9184z"/>
	<circle cx="49.4886" cy="21.5" r="21.5"/>
	<path d="M98.9797,123.4814l-6.3151-27.6828c-1.5019-8.4733-3.2759-15.7572-4.9258-21.5925l-4.5092-19.7664
		c0,0-3.5834-3.15-14.6122-5.0714c0.082,0.4044,0.0872,0.8306-0.0106,1.2593c-0.2838,1.242-7.1901,30.1572-40.575,68.1189
		c5.8445,0.5666,13.9691,1.1897,21.4568,1.1897c13.6719,0,29.459-2.0742,29.6172-2.0947l0.7891,5.9473
		c-0.548,0.0729-11.4468,1.5034-23.1786,1.9878c4.4448,7.2265,12.5332,22.5833,15.2441,42.2983l-5.9434,0.8164
		c-3.0303-22.0347-13.4615-38.6899-16.3492-42.9559c-0.0596,0.0001-0.1196,0.0008-0.1791,0.0008s-0.1196-0.0007-0.1791-0.0008
		c-2.8876,4.2659-13.3189,20.9212-16.3492,42.9559l-5.9434-0.8164c2.7109-19.7151,10.7993-35.0718,15.2441-42.2983
		c-11.7316-0.4844-22.6297-1.9149-23.1777-1.9878l0.7891-5.9473c0.0214,0.0028,0.3384,0.0442,0.8896,0.1121
		c0.0783-0.1157,0.1536-0.233,0.25-0.3396c10.2913-11.3785,18.1375-22.0178,24.1044-31.3671
		C36.421,69.1477,32.4874,51.9503,32.3237,51.2253l-0.4733-2.1013C19.6522,51.0085,15.75,54.4398,15.75,54.4398L0,123.4814
		l3.08,0.8583c-0.064,1.0151-0.1206,2.0366-0.1664,3.0684c-0.0414,0.9315-0.0844,1.8618-0.1103,2.8065
		c-0.0977,3.5889,2.7314,6.5781,6.3193,6.6758c0.0615,0.002,0.1211,0.0029,0.1816,0.0029c3.3675,0,6.158-2.577,6.4619-5.9037
		c0.0127-0.1386,0.0284-0.2764,0.0322-0.4175c0.0245-0.8944,0.065-1.7764,0.105-2.6586l3.2735,0.9123l-2.9488,15.989h2.8847
		l-12.9682,72c0,0,21.6666,7.5,34.1666,5l8.6791-77h0.9976l8.6791,77c12.5,2.5,34.1666-5,34.1666-5l-12.9682-72H82.75
		l-2.9487-15.9885l3.2823-0.9147c0.0352,0.8829,0.071,1.7652,0.0956,2.6605c0.0038,0.1413,0.0196,0.2792,0.0323,0.418
		c0.3043,3.3265,3.0945,5.9033,6.4619,5.9033c0.0596,0,0.1201-0.001,0.1816-0.0029c3.5879-0.0977,6.417-3.0869,6.3184-6.6758
		c-0.0259-0.9453-0.0637-1.8764-0.1006-2.8084c-0.041-1.034-0.0895-2.0574-0.1433-3.0746L98.9797,123.4814z"/>
	<polygon points="49.489,47.9184 49.4899,47.9184 49.4908,47.9184 	"/>
</g>
</svg>
