<?xml version="1.0" standalone="no"?>
<!DOCTYPE svg PUBLIC "-//W3C//DTD SVG 20010904//EN"
 "http://www.w3.org/TR/2001/REC-SVG-20010904/DTD/svg10.dtd">
<svg version="1.0" xmlns="http://www.w3.org/2000/svg"
 width="1207.000000pt" height="1280.000000pt" viewBox="0 0 1207.000000 1280.000000"
 preserveAspectRatio="xMidYMid meet">
<metadata>
Created by potrace 1.15, written by Peter Selinger 2001-2017
</metadata>
<g transform="translate(0.000000,1280.000000) scale(0.100000,-0.100000)"
fill="#000000" stroke="none">
<path d="M4501 12775 c-100 -47 -256 -221 -309 -346 -61 -141 -54 -433 14
-640 70 -211 250 -388 525 -518 139 -65 247 -102 469 -161 186 -49 309 -88
350 -110 12 -6 28 -27 36 -46 18 -44 33 -234 34 -429 1 -144 12 -280 24 -292
7 -8 59 9 216 69 245 95 355 112 720 112 232 1 273 -2 329 -18 148 -45 343
-215 419 -367 60 -121 76 -190 76 -339 1 -148 -20 -230 -82 -326 -125 -194
-381 -297 -807 -324 -212 -14 -336 -29 -352 -42 -74 -61 470 -386 867 -518
163 -55 225 -63 520 -69 l274 -6 14 -75 c19 -103 18 -331 -2 -464 -9 -60 -17
-110 -18 -111 -2 -1 -84 -25 -183 -54 -451 -131 -1016 -316 -2005 -654 -466
-159 -1431 -490 -1680 -575 -96 -33 -229 -79 -295 -101 l-120 -41 -192 106
-192 106 54 77 c173 244 329 477 329 492 1 16 -250 320 -263 318 -3 0 -136
-150 -294 -333 l-288 -334 -143 58 c-199 81 -346 130 -390 130 -43 0 -119 -30
-191 -75 -64 -41 -96 -99 -135 -247 -58 -221 -80 -387 -80 -597 0 -248 34
-420 116 -588 50 -103 112 -179 161 -199 54 -23 252 -34 416 -24 265 17 438
56 603 135 144 69 215 150 345 390 75 139 129 191 244 237 50 20 196 66 325
103 419 118 849 253 1645 515 1120 368 1392 450 1550 466 79 8 90 -3 82 -86
-3 -41 -19 -91 -52 -162 -44 -96 -175 -446 -175 -467 0 -5 -211 -199 -470
-431 -258 -231 -470 -424 -470 -427 0 -3 10 2 23 13 20 17 20 16 -2 -9 -24
-27 -38 -36 -26 -17 17 27 -16 2 -105 -80 l-98 -90 -121 -267 c-66 -146 -119
-268 -117 -271 4 -4 1128 1008 1206 1086 106 105 -55 -37 -570 -503 -316 -286
-584 -527 -595 -535 -30 -24 -7 9 27 38 15 13 26 27 23 32 -3 4 37 46 88 92
50 46 263 239 472 428 209 189 433 393 498 453 64 60 117 105 117 99 0 -6 -5
-14 -10 -17 -6 -4 -8 -11 -5 -16 4 -5 3 -14 -1 -21 -4 -7 -9 -21 -10 -33 -1
-11 -11 -56 -22 -100 -11 -44 -26 -108 -33 -142 -10 -55 -14 -63 -34 -63 -20
0 -24 -8 -35 -65 -14 -75 1 -300 24 -363 8 -21 19 -116 25 -212 7 -101 20
-210 31 -259 17 -70 18 -90 9 -119 -23 -68 -155 -186 -609 -542 -235 -184
-487 -397 -604 -510 -145 -140 -251 -300 -396 -595 -113 -230 -180 -391 -275
-660 -77 -218 -151 -370 -202 -416 -90 -81 -387 -259 -538 -322 -111 -47 -158
-57 -316 -67 -195 -14 -321 -56 -489 -165 -168 -109 -287 -268 -329 -440 -65
-263 1 -648 130 -759 87 -74 49 -71 949 -71 1006 1 1033 3 1222 115 141 84
191 156 239 340 19 73 21 102 16 200 -12 239 -111 609 -282 1057 l-104 272
115 258 c152 341 221 478 306 609 167 259 342 439 833 862 235 202 409 342
425 342 7 0 5 -55 -4 -117 -4 -25 0 -27 93 -43 37 -7 94 -9 137 -5 l72 7 21
57 c11 31 26 77 32 104 6 26 14 49 18 51 3 2 65 -6 136 -16 104 -16 186 -21
410 -22 154 0 306 2 338 7 l57 7 0 -44 c0 -72 2 -73 77 -64 37 4 70 4 74 0 11
-12 557 -843 771 -1174 167 -260 407 -640 563 -896 l38 -62 -52 -333 c-28
-182 -56 -370 -62 -417 -17 -128 -14 -377 5 -520 37 -274 77 -348 218 -402
146 -56 366 -64 1401 -53 l718 7 30 67 c63 137 70 213 44 431 -41 337 -94 489
-210 604 -110 109 -257 167 -676 266 -392 93 -416 103 -643 262 l-147 103
-478 595 c-311 388 -622 790 -893 1156 l-417 561 -21 83 -21 82 44 132 c25 72
50 156 56 186 16 85 31 252 31 359 0 88 2 99 28 138 l28 42 -13 138 c-6 76
-17 157 -23 181 -5 23 -10 142 -10 265 0 378 -16 497 -106 834 -72 267 -95
382 -97 473 -3 134 32 163 214 175 123 8 523 -9 699 -31 596 -72 783 -247 904
-845 48 -238 45 -372 -13 -509 -15 -36 -68 -128 -117 -205 -275 -426 -406
-775 -407 -1085 0 -184 39 -306 134 -414 59 -67 140 -94 389 -132 257 -38 451
8 622 150 318 263 288 619 -115 1371 -168 314 -167 311 -187 431 -10 60 -28
226 -40 369 -31 395 -64 582 -129 735 -114 273 -351 415 -801 480 -154 22
-541 66 -675 76 -49 4 -98 10 -108 13 -15 6 27 47 202 206 122 109 221 202
221 206 0 6 -50 66 -119 142 -13 15 -22 27 -18 27 3 0 74 -79 158 -175 83 -97
155 -175 160 -173 12 4 207 182 208 189 1 4 -38 50 -85 103 -47 53 -84 100
-82 105 2 5 60 60 131 121 74 65 125 116 121 122 -4 7 -3 8 4 4 14 -8 714 602
706 616 -3 4 0 7 8 6 7 -2 12 2 11 9 -2 7 3 10 10 7 19 -7 61 41 50 59 -12 21
-137 166 -143 166 -13 2 -479 -422 -477 -432 1 -7 -4 -11 -11 -9 -17 3 -172
-136 -169 -152 1 -6 -4 -10 -11 -8 -18 3 -173 -138 -165 -151 3 -6 1 -7 -5 -3
-6 4 -55 -33 -112 -84 -55 -49 -104 -90 -109 -90 -5 0 -41 37 -81 83 -39 45
-76 82 -81 82 -13 0 -219 -177 -219 -188 0 -5 34 -52 76 -105 42 -52 77 -101
78 -108 0 -8 -134 -136 -299 -284 l-300 -270 -110 6 c-60 4 -116 11 -122 16
-47 38 -41 234 17 579 35 206 53 234 207 325 137 80 245 166 374 294 323 322
574 753 654 1125 45 207 -5 827 -88 1087 l-24 75 176 8 c97 4 192 7 211 7 86
-3 208 -27 375 -73 99 -27 185 -49 192 -49 16 0 91 87 113 130 15 29 28 73 52
169 4 18 -108 45 -267 66 -86 11 -212 15 -458 15 -335 0 -338 0 -327 20 10 19
21 20 171 20 148 0 167 2 260 30 55 16 129 33 165 36 35 4 64 11 64 17 0 5 -9
50 -21 98 -25 106 -66 174 -125 206 l-40 22 -399 -124 c-219 -69 -399 -124
-400 -122 0 1 -18 25 -40 52 -220 281 -515 507 -875 670 -143 65 -228 78 -595
96 -374 18 -486 5 -700 -80 -93 -37 -267 -128 -332 -172 -24 -17 -50 -28 -57
-26 -8 3 -27 -8 -42 -25 -40 -42 -264 -225 -345 -282 -90 -62 -145 -86 -202
-86 -93 0 -147 43 -308 245 -313 393 -653 648 -959 720 -93 21 -146 19 -209
-10z m5518 -904 c26 -19 88 -118 79 -127 -3 -2 -13 14 -23 36 -10 22 -36 56
-57 75 -42 38 -41 46 1 16z m-801 -266 c-3 -3 -9 2 -12 12 -6 14 -5 15 5 6 7
-7 10 -15 7 -18z m607 -75 c-16 -4 -52 -7 -80 -7 l-50 0 55 7 c30 4 66 7 80 7
22 1 21 0 -5 -7z m335 -80 l55 -7 -45 -1 c-25 0 -67 3 -95 8 -48 7 -49 7 -10
8 22 0 65 -3 95 -8z m217 -26 c-3 -3 -12 -4 -19 -1 -8 3 -5 6 6 6 11 1 17 -2
13 -5z m40 -10 c-3 -3 -12 -4 -19 -1 -8 3 -5 6 6 6 11 1 17 -2 13 -5z m100
-46 c-3 -8 -6 -5 -6 6 -1 11 2 17 5 13 3 -3 4 -12 1 -19z m-41 -137 c-14 -27
-29 -52 -34 -55 -4 -2 6 23 23 57 16 34 31 59 33 55 2 -3 -8 -29 -22 -57z
m-873 -8 c-34 -2 -93 -2 -130 0 -37 2 -9 3 62 3 72 0 102 -1 68 -3z m-472
-2950 c13 -16 12 -17 -3 -4 -10 7 -18 15 -18 17 0 8 8 3 21 -13z m18 -57 c10
-12 9 -14 -6 -10 -13 3 -77 -47 -215 -171 -109 -96 -198 -173 -198 -171 0 5
400 366 405 366 1 0 8 -6 14 -14z m21 -139 c0 -2 -12 -14 -27 -28 l-28 -24 24
28 c23 25 31 32 31 24z m-70 -60 c0 -2 -19 -21 -42 -42 l-43 -40 40 43 c36 39
45 47 45 39z m-94 -86 c-3 -5 -47 -46 -98 -91 l-93 -82 95 90 c92 89 107 101
96 83z m-326 -116 c-24 -25 -46 -45 -49 -45 -3 0 15 20 39 45 24 25 46 45 49
45 3 0 -15 -20 -39 -45z m264 -26 c-48 -54 -136 -121 -145 -112 -6 6 1 18 18
34 15 13 21 16 14 7 -26 -35 5 -16 64 37 63 57 82 70 49 34z m-324 -22 c0 -2
-19 -21 -42 -42 l-43 -40 40 43 c36 39 45 47 45 39z m166 -36 c-17 -18 -23
-30 -16 -33 9 -3 7 -8 -4 -17 -11 -10 -16 -10 -16 -2 0 7 -6 9 -12 5 -7 -4 5
12 27 35 21 22 41 41 44 41 3 0 -8 -13 -23 -29z m-1792 -1436 c-4 -8 -10 -15
-15 -15 -5 0 -94 -75 -197 -166 -103 -92 -176 -155 -162 -141 43 45 365 336
372 336 4 1 5 -6 2 -14z m-82 -257 c-8 -8 -9 -4 -5 13 4 13 8 18 11 10 2 -7
-1 -18 -6 -23z m-12 -42 c0 -8 -7 -16 -15 -18 -8 -2 -110 -88 -227 -192 -117
-104 -201 -176 -185 -159 15 16 25 32 22 34 -2 3 17 25 43 50 25 24 36 32 23
17 -14 -16 -20 -28 -14 -28 12 0 55 45 48 51 -2 3 14 23 37 45 24 21 34 29 24
17 -11 -13 -15 -23 -9 -23 12 0 55 45 48 51 -2 3 14 23 37 45 24 21 34 29 24
17 -11 -13 -15 -23 -9 -23 12 0 65 55 58 61 -3 3 10 19 27 35 18 16 26 21 19
12 -19 -25 2 -23 24 2 22 24 25 25 25 6z m-310 -50 c0 -2 -42 -41 -92 -86
l-93 -82 90 86 c89 85 95 90 95 82z m-230 -211 c-24 -25 -46 -45 -49 -45 -3 0
15 20 39 45 24 25 46 45 49 45 3 0 -15 -20 -39 -45z m-60 -49 c0 -2 -42 -41
-92 -86 l-93 -82 90 86 c89 85 95 90 95 82z m157 -54 c-15 -16 -25 -31 -22
-33 2 -3 -17 -25 -43 -50 -26 -24 -34 -29 -18 -11 17 17 26 32 21 32 -5 0 11
20 35 45 24 25 46 45 49 45 3 0 -7 -13 -22 -28z m-100 -90 c-15 -16 -25 -31
-22 -33 2 -3 -17 -25 -43 -50 -25 -24 -36 -32 -23 -16 14 15 20 27 14 27 -12
0 -55 -45 -48 -51 2 -3 -14 -23 -37 -45 -24 -21 -34 -29 -24 -16 11 12 15 22
9 22 -12 0 -65 -55 -58 -61 3 -3 -10 -19 -27 -35 -18 -16 -26 -21 -19 -11 26
34 -4 16 -51 -30 -34 -33 -48 -42 -48 -30 0 9 6 17 13 18 6 0 95 76 197 169
178 163 224 202 167 142z m-324 -121 c-4 -15 -8 -19 -13 -11 -5 8 -19 2 -46
-20 -26 -21 -22 -16 10 14 27 26 50 45 52 43 2 -1 1 -13 -3 -26z m-140 -105
c-10 -13 -20 -22 -22 -20 -4 4 29 44 36 44 2 0 -4 -11 -14 -24z m-62 -123
c-12 -20 -14 -14 -5 12 4 9 9 14 11 11 3 -2 0 -13 -6 -23z m-105 -230 c-8 -15
-15 -25 -16 -21 0 12 23 58 27 54 3 -2 -2 -17 -11 -33z m-26 -88 c-7 -8 -16
-15 -21 -15 -5 0 -6 7 -3 15 4 8 13 15 21 15 13 0 13 -3 3 -15z"/>
<path d="M6819 5953 c-13 -16 -12 -17 4 -4 9 7 17 15 17 17 0 8 -8 3 -21 -13z"/>
<path d="M6714 5858 l-19 -23 23 19 c21 18 27 26 19 26 -2 0 -12 -10 -23 -22z"/>
<path d="M6614 5768 l-19 -23 23 19 c21 18 27 26 19 26 -2 0 -12 -10 -23 -22z"/>
<path d="M6514 5678 l-19 -23 23 19 c21 18 27 26 19 26 -2 0 -12 -10 -23 -22z"/>
<path d="M6409 5583 c-13 -16 -12 -17 4 -4 9 7 17 15 17 17 0 8 -8 3 -21 -13z"/>
<path d="M6304 5488 l-19 -23 23 19 c21 18 27 26 19 26 -2 0 -12 -10 -23 -22z"/>
<path d="M6204 5398 l-19 -23 23 19 c21 18 27 26 19 26 -2 0 -12 -10 -23 -22z"/>
<path d="M6099 5303 c-13 -16 -12 -17 4 -4 9 7 17 15 17 17 0 8 -8 3 -21 -13z"/>
<path d="M2143 9838 c21 -88 20 -94 -13 -108 -27 -11 -33 -11 -41 1 -6 10 -9
10 -9 2 0 -7 -8 -13 -17 -13 -33 0 -46 -15 -34 -38 9 -16 20 -21 50 -19 22 0
37 5 35 9 -3 4 19 14 48 23 29 8 60 20 68 25 13 9 13 11 0 20 -8 5 -26 7 -40
4 -22 -5 -23 -4 -7 6 13 9 17 19 13 36 -4 13 -2 24 4 24 19 0 185 -72 203 -88
12 -11 16 -24 12 -40 -5 -19 2 -32 35 -63 44 -42 153 -119 169 -119 5 0 23
-12 40 -26 27 -23 31 -24 30 -7 0 16 -63 66 -238 189 -19 13 -30 24 -24 24 7
0 15 -4 18 -10 3 -5 14 -14 25 -20 17 -9 17 -6 -4 47 l-22 57 -153 53 c-147
51 -153 52 -148 31z"/>
<path d="M1739 9846 c-2 -2 -35 -7 -74 -10 -161 -14 -1648 -225 -1659 -236
-14 -13 71 -162 268 -472 19 -30 4 -33 506 87 179 42 417 100 530 127 269 65
492 116 533 123 97 17 203 38 209 42 5 2 -1 21 -12 43 -22 42 -16 50 38 50 37
0 56 14 48 35 -5 13 -15 16 -42 13 -31 -4 -39 0 -62 30 -21 28 -23 35 -11 43
8 5 22 9 31 9 29 0 29 17 -1 48 -26 29 -31 31 -82 25 -47 -4 -59 -2 -92 21
-26 18 -51 26 -81 26 -23 0 -45 -2 -47 -4z"/>
<path d="M2205 9690 c-9 -15 23 -57 53 -68 84 -32 232 -75 239 -69 12 13 -20
33 -92 55 -39 12 -97 38 -129 57 -66 40 -63 38 -71 25z"/>
<path d="M2641 9558 c-10 -17 -10 -22 6 -34 10 -8 26 -12 36 -10 12 3 50 -31
125 -110 59 -63 107 -121 107 -128 0 -7 7 -22 15 -32 8 -11 -2 -4 -21 14 -19
17 -38 32 -42 32 -12 0 -8 -29 6 -37 6 -5 26 -24 42 -43 l30 -35 -31 28 c-16
15 -34 27 -38 27 -4 0 -55 43 -112 97 -69 63 -104 103 -104 117 0 20 -36 53
-46 43 -16 -16 25 -70 151 -201 116 -121 147 -147 158 -138 11 10 24 0 65 -49
56 -65 58 -70 41 -97 -9 -14 9 -47 108 -192 87 -128 125 -176 142 -178 22 -3
22 -3 6 27 -8 17 -20 31 -25 31 -5 0 -48 54 -95 121 -78 111 -95 149 -59 135
19 -7 18 14 -3 44 l-17 24 28 -20 c25 -18 209 -265 222 -298 4 -9 1 -16 -6
-16 -7 0 -10 -7 -6 -15 11 -30 -4 -14 -24 25 -11 22 -25 40 -30 40 -9 0 138
-299 161 -326 33 -40 21 -1 -32 102 l-59 116 21 29 c11 17 18 37 15 45 -3 8
-61 87 -128 175 -104 137 -125 160 -145 156 -19 -3 -32 9 -76 67 -70 92 -79
111 -83 165 -4 51 -20 70 -195 231 -90 84 -96 88 -108 68z m447 -593 c-3 -3
-9 2 -12 12 -6 14 -5 15 5 6 7 -7 10 -15 7 -18z"/>
<path d="M3435 8450 c8 -16 20 -29 25 -27 5 1 50 -61 100 -137 68 -105 87
-142 79 -152 -11 -13 -4 -54 10 -54 4 0 15 6 25 13 16 12 9 27 -85 185 -72
122 -110 177 -130 187 -39 21 -42 19 -24 -15z"/>
<path d="M3363 8453 c-7 -2 -13 -9 -13 -13 0 -12 207 -350 226 -369 21 -23 27
-6 9 26 -9 15 -56 91 -104 168 -49 77 -84 143 -79 146 6 4 5 15 -3 28 -14 22
-16 23 -36 14z"/>
<path d="M3580 8159 c1 -8 7 -32 15 -54 8 -21 12 -41 10 -43 -2 -2 5 -28 15
-58 16 -45 17 -54 4 -54 -17 0 -17 -10 -2 -159 6 -65 17 -122 24 -130 22 -24
26 26 12 135 -8 54 -11 110 -8 124 5 21 8 19 24 -25 25 -68 40 -81 33 -30 l-6
40 14 -40 c7 -22 14 -33 14 -25 1 11 5 10 21 -5 14 -15 24 -49 35 -128 9 -60
15 -111 12 -113 -11 -11 -59 22 -77 53 -20 34 -40 44 -40 19 0 -7 -17 -33 -38
-57 l-39 -43 -27 27 c-15 15 -31 27 -35 27 -5 0 -20 -18 -33 -40 l-23 -40 -36
30 -36 29 -66 -77 c-36 -42 -62 -82 -59 -89 4 -6 61 -73 127 -149 66 -75 125
-144 130 -151 9 -12 23 3 68 67 31 44 57 83 57 86 0 3 -9 19 -21 35 l-20 29
30 53 c26 46 28 54 15 71 -20 28 -18 42 12 81 l25 34 54 -35 c60 -38 79 -42
71 -16 -2 9 -10 76 -17 147 l-13 130 -52 55 c-58 62 -123 183 -128 238 -2 23
-11 41 -25 50 -18 12 -21 12 -21 1z"/>
<path d="M6291 5413 c-314 -284 -569 -519 -567 -521 3 -2 249 218 548 488 589
534 606 550 596 550 -4 0 -264 -233 -577 -517z"/>
</g>
</svg>
