<?xml version="1.0" standalone="no"?>
<!DOCTYPE svg PUBLIC "-//W3C//DTD SVG 20010904//EN"
 "http://www.w3.org/TR/2001/REC-SVG-20010904/DTD/svg10.dtd">
<svg version="1.0" xmlns="http://www.w3.org/2000/svg"
 width="500px" height="500px" viewBox="0 0 1280.000000 1280.000000"
 preserveAspectRatio="xMidYMid meet">
<metadata>
Created by potrace 1.15, written by Peter Selinger 2001-2017
</metadata>
<g transform="translate(0.000000,1280.000000) scale(0.100000,-0.100000)"
fill="#000000" stroke="none">
<path d="M2875 12668 c-11 -6 -58 -46 -105 -88 -47 -42 -128 -107 -180 -145
-172 -123 -298 -235 -326 -288 -18 -34 -10 -51 54 -114 26 -26 44 -57 56 -95
9 -32 28 -71 41 -86 34 -41 143 -104 166 -97 23 8 119 -79 119 -107 0 -11 9
-31 20 -45 11 -14 20 -36 20 -49 0 -13 9 -29 20 -36 12 -8 20 -24 20 -39 0
-14 11 -36 25 -49 15 -14 23 -30 20 -40 -3 -10 4 -38 15 -64 11 -26 20 -59 20
-72 0 -14 7 -36 16 -49 9 -14 13 -32 10 -41 -4 -10 4 -32 20 -55 17 -26 24
-44 19 -59 -5 -14 3 -35 25 -68 27 -40 31 -53 26 -89 -4 -33 -2 -46 13 -60 28
-27 39 -72 40 -163 1 -14 5 -36 10 -50 5 -14 12 -36 15 -50 3 -14 18 -33 34
-42 27 -16 30 -23 34 -85 4 -66 4 -67 60 -117 44 -40 67 -73 107 -153 28 -57
56 -103 61 -103 17 0 40 -57 40 -99 0 -22 4 -42 9 -45 4 -3 11 -19 14 -36 5
-23 19 -36 60 -60 l54 -30 5 -74 c5 -84 18 -109 102 -214 74 -93 82 -114 89
-222 9 -141 43 -231 146 -383 26 -40 56 -87 65 -104 9 -18 49 -72 90 -120 58
-71 87 -118 144 -238 38 -82 91 -206 117 -275 26 -69 80 -192 121 -275 93
-190 131 -330 169 -629 8 -66 18 -138 21 -160 4 -23 34 -102 69 -176 34 -74
77 -170 95 -213 22 -51 59 -110 106 -169 48 -60 80 -110 94 -151 12 -34 36
-90 52 -124 28 -57 29 -66 19 -110 -5 -26 -18 -102 -27 -168 -9 -66 -25 -158
-35 -204 -23 -101 -29 -76 101 -440 125 -351 178 -523 239 -787 51 -219 140
-532 193 -683 17 -47 51 -122 77 -166 l46 -80 6 -145 c5 -96 14 -173 28 -228
11 -46 21 -91 21 -100 0 -9 -18 -27 -40 -40 -69 -39 -107 -80 -131 -140 -13
-31 -40 -84 -61 -116 -21 -32 -45 -84 -55 -115 -9 -31 -22 -62 -28 -69 -9 -10
-10 -26 -3 -58 8 -36 7 -49 -5 -62 -8 -9 -26 -64 -40 -120 -23 -90 -32 -110
-67 -148 -59 -64 -64 -83 -45 -173 15 -73 15 -76 -4 -91 -24 -19 -43 -123 -27
-146 17 -23 11 -160 -8 -189 -21 -32 -20 -74 3 -134 19 -47 19 -50 2 -65 -26
-24 -26 -141 0 -178 26 -36 24 -85 -5 -133 -18 -29 -23 -48 -19 -73 4 -24 1
-39 -14 -55 -11 -12 -23 -34 -27 -49 -3 -14 -18 -40 -32 -57 -18 -22 -25 -39
-22 -56 4 -17 -2 -31 -18 -46 -19 -17 -24 -33 -24 -69 0 -25 -4 -50 -10 -56
-5 -5 -19 -45 -30 -87 -21 -85 -17 -146 16 -208 12 -25 14 -37 5 -56 -6 -13
-11 -39 -11 -58 0 -19 -2 -35 -5 -35 -15 0 -206 -31 -239 -39 -21 -5 -42 -14
-45 -19 -3 -5 -14 -11 -25 -13 -10 -2 -22 -14 -27 -26 -7 -19 -1 -26 44 -54
28 -17 66 -33 84 -34 18 -2 38 -7 44 -11 8 -5 9 -3 4 5 -6 10 -3 11 11 3 11
-5 25 -7 33 -4 8 3 11 0 7 -6 -4 -7 7 -11 31 -11 55 -1 87 -5 98 -13 6 -3 53
-9 105 -13 52 -4 97 -8 100 -10 15 -9 237 -21 566 -31 211 -6 439 11 541 41
26 7 75 17 108 20 73 9 109 28 100 56 -4 12 -2 19 7 19 7 0 30 13 49 30 32 26
37 36 43 87 3 32 8 74 12 95 5 32 2 41 -28 72 -35 37 -185 107 -408 190 -130
48 -204 84 -270 130 -24 17 -51 34 -59 37 -8 3 -20 23 -26 45 -7 26 -21 46
-42 59 -29 18 -32 25 -33 67 0 26 -5 50 -10 53 -6 3 -17 20 -26 37 -15 30 -15
31 14 58 27 24 30 32 25 69 -4 29 -1 47 9 59 21 24 47 100 52 148 2 22 11 55
20 72 9 17 16 37 16 45 0 7 16 29 36 48 49 47 57 64 65 142 3 40 13 75 22 85
43 46 87 100 87 107 0 5 7 17 17 27 13 15 14 22 4 45 -11 23 -9 30 19 64 36
46 49 77 48 117 -1 18 11 49 31 78 17 26 31 56 31 66 0 27 26 74 51 92 13 9
19 21 16 30 -5 11 0 16 14 16 50 0 89 53 89 120 0 37 29 97 62 126 12 11 47
35 76 53 61 39 72 55 72 110 0 45 30 132 82 236 41 81 63 146 78 230 9 52 7
73 -16 175 -29 128 -29 106 -25 745 1 225 -2 413 -9 480 -7 61 -15 216 -19
345 -9 247 -11 262 -65 368 -14 28 -26 54 -26 56 0 3 16 -4 35 -15 19 -11 39
-18 45 -14 5 3 10 29 10 58 0 46 -4 55 -39 92 -22 22 -49 58 -62 80 -67 119
-79 141 -79 151 0 6 35 21 77 33 82 24 249 103 317 150 27 19 59 31 93 34 61
7 110 31 177 86 26 23 54 41 61 41 7 0 30 18 52 39 26 26 52 42 78 47 21 4 54
21 74 39 20 18 65 46 101 62 36 16 110 60 165 96 55 37 105 67 111 67 6 0 25
-20 43 -45 18 -25 68 -83 113 -130 87 -92 126 -112 196 -99 64 12 164 70 239
138 39 36 74 66 77 66 3 0 35 14 71 31 68 32 111 74 121 117 12 55 16 61 49
82 47 29 99 139 92 192 -4 33 1 48 46 116 28 42 63 109 78 147 25 62 28 83 28
185 1 133 -9 182 -50 264 -16 33 -29 70 -29 82 0 33 -133 181 -244 274 -96 80
-126 119 -126 164 0 34 -44 92 -99 130 l-39 28 19 56 c13 39 18 69 14 94 -10
57 50 254 86 288 16 14 49 68 75 120 56 113 116 204 148 225 27 18 78 109 97
173 7 23 16 42 21 42 19 0 8 159 -17 237 -28 89 -140 270 -196 317 -18 16 -39
41 -45 56 -7 15 -29 37 -50 50 -22 13 -54 37 -73 53 -19 16 -51 36 -70 44 -20
8 -61 33 -91 56 -53 39 -54 39 -25 7 l30 -33 -38 7 c-21 4 -46 9 -55 12 -9 2
1 -4 22 -15 l40 -19 -80 5 c-60 4 -100 0 -167 -16 -49 -11 -97 -21 -108 -21
-10 0 -19 -4 -19 -10 0 -5 -12 -10 -27 -10 -42 0 -13 -20 31 -22 33 -1 35 -3
18 -12 -12 -6 -22 -15 -23 -21 -4 -14 -76 -68 -126 -94 -23 -11 -60 -21 -83
-21 -22 0 -40 -4 -40 -10 0 -5 -7 -10 -15 -10 -9 0 -12 -6 -8 -16 5 -13 15
-15 51 -9 l46 7 -32 -27 c-18 -15 -32 -33 -32 -40 0 -7 -10 -20 -22 -29 l-23
-17 23 6 c12 4 22 5 22 2 0 -2 -13 -28 -30 -58 -34 -62 -37 -74 -13 -65 36 14
33 -31 -8 -159 -23 -72 -23 -78 -3 -120 14 -29 14 -39 -1 -101 -13 -56 -15
-99 -9 -227 l7 -157 -43 42 c-24 24 -49 62 -57 86 -19 55 -54 82 -107 82 -36
0 -49 7 -96 51 -68 62 -204 156 -290 199 -36 18 -122 56 -191 84 -156 65 -173
75 -399 237 -286 204 -341 250 -463 387 -63 70 -122 134 -132 142 -9 8 -20 22
-24 31 -3 9 -55 54 -116 100 -60 46 -177 137 -260 203 -243 193 -579 442 -662
491 -43 26 -87 52 -98 58 -11 7 -45 35 -76 62 -77 69 -295 215 -322 215 -35 0
-84 -35 -114 -82 -15 -24 -52 -72 -81 -107 -51 -61 -54 -67 -49 -106 5 -36 4
-41 -14 -42 -23 -2 -48 -30 -49 -54 0 -25 121 -129 152 -129 9 0 62 -14 119
-30 82 -24 121 -30 186 -29 67 1 86 -2 110 -19 74 -54 396 -396 495 -528 152
-202 357 -448 376 -453 9 -2 46 -29 82 -61 36 -31 112 -88 170 -125 82 -54
148 -111 300 -260 201 -196 240 -230 420 -354 169 -117 211 -167 231 -275 9
-48 8 -61 -5 -75 -32 -35 -46 -90 -46 -175 0 -75 -3 -88 -25 -114 -13 -16 -33
-49 -43 -73 -11 -25 -27 -50 -36 -58 -9 -7 -16 -24 -16 -36 0 -12 -9 -34 -21
-49 -12 -15 -34 -54 -50 -87 -18 -37 -38 -63 -52 -68 -13 -5 -51 -41 -86 -80
-60 -68 -66 -71 -148 -96 -46 -14 -94 -25 -106 -23 -14 2 -33 23 -55 63 -18
33 -42 69 -53 81 -21 23 -106 220 -180 424 -74 199 -110 265 -223 399 -21 25
-50 72 -65 106 -57 126 -275 446 -383 563 -97 105 -123 146 -136 224 -32 177
-105 272 -238 311 l-49 14 -6 70 c-11 120 -78 212 -166 229 -31 6 -33 9 -33
49 0 35 -5 48 -26 64 -14 11 -34 23 -44 26 -10 3 -23 18 -29 33 -17 42 -43 78
-78 106 -22 19 -35 41 -43 76 -10 41 -25 64 -86 128 -41 42 -74 84 -74 93 0 8
-11 26 -24 38 -14 13 -36 47 -50 76 -22 48 -60 96 -146 192 -16 17 -32 48 -36
68 -5 28 -15 42 -37 54 -17 9 -47 30 -67 48 -30 26 -36 38 -32 61 3 24 -3 35
-37 64 -37 32 -41 39 -41 82 0 32 -5 48 -15 52 -8 4 -15 15 -15 25 0 10 -4 19
-9 19 -5 0 -11 10 -13 22 -2 14 -14 25 -37 33 -20 7 -38 21 -43 35 -5 13 -17
29 -27 36 -12 9 -17 21 -14 39 3 14 -2 36 -11 50 -11 16 -16 43 -15 77 2 67
-28 151 -68 187 -16 14 -46 61 -65 103 -20 42 -41 79 -47 82 -20 12 -23 91 -7
147 9 29 19 84 23 121 5 63 3 73 -27 134 -35 71 -74 104 -125 104 -16 1 -41 7
-55 15 -30 17 -58 18 -85 3z m1406 -1821 c-5 -12 -18 -23 -30 -25 l-23 -4 23
31 c25 34 43 33 30 -2z m4075 -864 c42 -27 18 -26 -33 2 -35 20 -41 25 -19 21
15 -4 39 -14 52 -23z"/>
</g>
</svg>
