<?xml version="1.0" standalone="no"?>
<!DOCTYPE svg PUBLIC "-//W3C//DTD SVG 20010904//EN"
 "http://www.w3.org/TR/2001/REC-SVG-20010904/DTD/svg10.dtd">
<svg version="1.0" xmlns="http://www.w3.org/2000/svg"
 width="200px" height="300px" viewBox="0 0 904.000000 1280.000000"
 preserveAspectRatio="xMidYMid meet">
<g transform="translate(0.000000,1280.000000) scale(0.100000,-0.100000)"
fill="#000000" stroke="none">
<path d="M4460 12776 c-80 -13 -183 -33 -230 -44 -505 -123 -951 -451 -1227
-904 -331 -542 -383 -1198 -143 -1796 267 -667 892 -1144 1613 -1232 125 -16
473 -7 577 14 41 9 96 19 122 22 l47 7 10 -39 c56 -219 132 -567 125 -574 -9
-9 -833 -59 -3699 -224 -710 -41 -1318 -79 -1352 -85 -83 -12 -147 -45 -204
-101 -37 -38 -51 -62 -73 -128 -32 -100 -32 -112 -1 -192 47 -121 103 -178
208 -214 71 -24 118 -23 872 24 94 6 476 28 850 50 1725 100 2114 123 2747
160 811 48 785 47 798 18 19 -45 137 -563 189 -828 140 -725 132 -1226 -30
-1815 -40 -146 -166 -531 -190 -580 -16 -33 17 -19 -464 -200 -849 -321 -1389
-548 -1880 -790 -1182 -584 -1745 -1129 -2108 -2046 -109 -274 -270 -836 -270
-944 -1 -100 66 -222 148 -270 45 -27 149 -64 178 -65 33 0 144 41 190 70 25
16 57 46 71 67 15 23 70 185 136 398 135 440 170 535 270 740 297 609 754
1002 1710 1472 417 205 894 405 1834 769 400 155 337 156 771 -8 648 -245
1125 -490 1403 -722 183 -152 283 -292 328 -456 24 -88 24 -283 0 -405 -43
-221 -160 -514 -370 -925 -77 -151 -158 -311 -181 -354 -38 -76 -40 -84 -40
-170 0 -108 20 -161 85 -226 101 -101 253 -130 375 -71 84 40 119 83 220 266
329 595 499 1015 566 1402 29 167 32 424 5 557 -78 400 -282 688 -706 997
-325 237 -855 505 -1424 720 -92 35 -170 69 -173 75 -2 7 25 104 62 215 162
496 232 869 242 1291 11 463 -57 976 -223 1667 -19 79 -34 155 -34 168 l0 26
78 -7 c336 -27 1020 -36 1267 -17 806 65 1281 305 1434 727 55 152 81 357 61
483 -36 227 -54 318 -86 435 -145 527 -454 1157 -1111 2268 -156 264 -204 303
-373 303 -80 0 -103 -4 -144 -24 -63 -31 -118 -86 -153 -153 -24 -46 -28 -65
-28 -138 l0 -85 189 -335 c767 -1359 1030 -1937 1053 -2320 19 -307 -166 -428
-742 -485 -146 -15 -245 -17 -690 -11 -532 6 -882 19 -896 33 -4 4 -53 197
-109 428 -55 231 -103 429 -106 440 -4 16 8 30 60 68 181 133 346 307 476 501
386 574 447 1301 165 1938 -250 562 -776 992 -1388 1132 -233 54 -477 65 -687
32z m521 -676 c316 -65 607 -250 807 -515 68 -90 174 -305 206 -419 92 -324
66 -653 -75 -953 -126 -266 -369 -510 -630 -632 -201 -95 -346 -126 -579 -126
-232 0 -372 30 -569 121 -184 85 -404 268 -520 434 -295 419 -328 971 -86
1416 160 294 415 512 726 622 85 30 246 68 324 76 82 8 301 -5 396 -24z"/>
</g>
</svg>
