<?xml version="1.0" standalone="no"?>
<!DOCTYPE svg PUBLIC "-//W3C//DTD SVG 20010904//EN"
 "http://www.w3.org/TR/2001/REC-SVG-20010904/DTD/svg10.dtd">
<svg version="1.0" xmlns="http://www.w3.org/2000/svg"
 width="350px" height="350px" viewBox="0 0 1280.000000 1052.000000"
 preserveAspectRatio="xMidYMid meet">
<metadata>
Created by potrace 1.15, written by Peter Selinger 2001-2017
</metadata>
<g transform="translate(0.000000,1052.000000) scale(0.100000,-0.100000)"
fill="#000000" stroke="none">
<path d="M6795 10440 c-16 -10 -40 -19 -52 -19 -12 -1 -24 -5 -28 -10 -7 -12
-64 -41 -80 -41 -16 0 -57 -45 -48 -53 3 -4 0 -7 -7 -7 -14 0 -50 -38 -50 -53
0 -5 -9 -18 -21 -28 -12 -10 -18 -23 -13 -30 4 -8 3 -9 -5 -5 -6 4 -14 0 -18
-11 -4 -10 -17 -35 -30 -55 -13 -21 -23 -44 -23 -53 0 -8 -4 -15 -9 -15 -9 0
-14 -43 -27 -237 -3 -46 -10 -83 -15 -83 -13 0 -12 -457 1 -465 17 -10 12 -48
-5 -41 -19 7 -19 -13 0 -41 11 -16 12 -22 2 -26 -9 -4 -9 -7 1 -18 6 -7 12
-28 12 -46 0 -26 5 -36 23 -42 13 -5 29 -16 36 -25 7 -9 19 -16 25 -16 17 0
56 -43 56 -62 0 -9 -7 -21 -15 -28 -8 -7 -15 -18 -15 -26 0 -19 -38 -43 -60
-37 -28 8 -70 -5 -70 -21 0 -7 -7 -19 -15 -26 -9 -7 -14 -19 -11 -26 3 -7 -2
-18 -10 -25 -10 -8 -13 -22 -9 -39 4 -18 1 -31 -10 -40 -8 -7 -15 -20 -15 -29
0 -17 -63 -81 -80 -81 -11 0 -82 -39 -90 -49 -3 -3 -33 -20 -67 -36 -34 -17
-63 -34 -63 -38 0 -5 -31 -46 -70 -92 -38 -46 -70 -89 -70 -94 0 -6 -5 -11
-10 -11 -6 0 -10 -6 -8 -14 2 -8 -1 -14 -6 -13 -4 1 -17 -14 -27 -33 -11 -19
-35 -55 -54 -80 -19 -25 -39 -54 -44 -65 -5 -12 -16 -27 -25 -34 -10 -8 -16
-29 -16 -52 0 -21 -4 -41 -10 -44 -5 -3 -10 -16 -10 -29 0 -12 -4 -26 -10 -32
-5 -5 -11 -18 -13 -29 -2 -11 -8 -30 -15 -41 -6 -12 -13 -36 -14 -53 -1 -17
-6 -31 -10 -31 -4 0 -8 -29 -8 -64 0 -37 -5 -68 -11 -72 -8 -4 -7 -9 2 -15 10
-6 11 -11 3 -16 -18 -12 -28 -116 -29 -275 0 -80 -3 -144 -6 -142 -11 6 -18
-23 -9 -32 5 -5 10 -76 12 -157 2 -82 6 -151 11 -154 4 -2 7 -64 7 -138 0 -78
4 -136 10 -140 6 -3 10 -39 10 -79 0 -68 -2 -75 -25 -90 -14 -9 -25 -22 -25
-29 0 -7 -43 -55 -95 -107 l-95 -95 0 -57 c0 -31 5 -60 10 -63 6 -3 10 -17 10
-30 0 -13 5 -27 10 -30 6 -3 10 -25 10 -48 0 -38 -6 -48 -51 -92 -27 -28 -63
-77 -79 -110 -39 -82 -135 -174 -230 -223 -41 -21 -84 -43 -95 -49 -11 -6 -33
-17 -50 -24 -16 -7 -47 -27 -67 -44 -105 -84 -116 -96 -111 -115 3 -11 1 -20
-5 -20 -14 0 -21 -189 -7 -194 6 -3 2 -5 -7 -5 -10 -1 -18 -7 -18 -14 0 -8
-20 -53 -45 -102 -24 -49 -43 -91 -40 -93 2 -3 -2 -17 -9 -31 -8 -14 -19 -46
-26 -71 -7 -25 -16 -53 -21 -62 -5 -10 -9 -60 -9 -112 l0 -95 -61 -58 c-33
-32 -68 -61 -77 -65 -10 -3 -39 -29 -67 -57 -27 -28 -54 -51 -60 -51 -13 0
-285 -272 -285 -285 0 -6 -29 -40 -65 -75 -36 -35 -65 -69 -65 -75 0 -6 -23
-33 -51 -60 -27 -28 -56 -63 -63 -80 -8 -16 -21 -47 -30 -67 -9 -20 -21 -40
-26 -43 -6 -4 -8 -11 -5 -16 4 -5 -4 -24 -17 -41 -30 -43 -48 -77 -48 -94 0
-19 -44 -46 -63 -39 -8 4 -18 2 -22 -4 -3 -6 -21 -11 -38 -11 -18 0 -41 -7
-51 -15 -11 -8 -34 -15 -52 -15 -18 0 -36 -5 -39 -10 -3 -6 -24 -10 -45 -10
-21 0 -42 -5 -45 -10 -3 -6 -17 -10 -30 -10 -13 0 -27 -4 -30 -10 -3 -5 -22
-10 -41 -10 -19 0 -34 -4 -34 -10 0 -5 -15 -10 -32 -10 -18 0 -42 -7 -52 -15
-11 -8 -31 -15 -45 -15 -14 0 -53 -14 -86 -30 -33 -17 -65 -30 -71 -30 -6 0
-42 -16 -80 -35 -37 -19 -73 -35 -80 -35 -7 0 -38 -13 -69 -30 -31 -16 -63
-30 -70 -30 -7 0 -15 -3 -17 -7 -5 -12 -111 -63 -129 -63 -9 0 -22 -7 -29 -15
-7 -9 -28 -23 -46 -31 -19 -9 -34 -20 -34 -25 0 -5 -6 -9 -14 -9 -8 0 -28 -11
-44 -25 -17 -14 -33 -25 -38 -25 -4 0 -16 -7 -26 -17 -10 -9 -28 -21 -41 -28
-12 -6 -21 -17 -19 -24 1 -7 -1 -10 -6 -7 -5 3 -26 -13 -47 -34 -22 -22 -44
-40 -50 -40 -6 0 -62 -52 -125 -115 -63 -63 -111 -115 -107 -115 4 0 -9 -19
-30 -41 -21 -23 -37 -45 -35 -50 1 -5 -4 -8 -10 -7 -7 2 -12 -3 -10 -10 1 -8
-2 -11 -7 -7 -6 3 -15 -5 -22 -17 -6 -13 -20 -32 -30 -43 -10 -11 -19 -24 -21
-30 -2 -5 -6 -9 -9 -8 -17 6 -99 -120 -99 -151 0 -22 -59 -66 -89 -66 -48 0
-126 -48 -192 -119 -69 -73 -105 -121 -101 -134 1 -4 -2 -6 -7 -5 -13 4 -54
-56 -92 -132 -17 -36 -44 -79 -60 -95 -33 -35 -33 -38 -23 -292 3 -82 1 -140
-5 -152 -6 -10 -37 -31 -70 -46 l-58 -27 -7 -122 c-4 -66 -4 -129 -1 -139 5
-12 2 -17 -9 -17 -9 0 -16 -7 -16 -15 0 -8 5 -15 12 -15 15 0 58 -48 58 -65 0
-6 12 -22 26 -36 14 -13 32 -36 40 -52 8 -15 22 -27 32 -27 9 0 44 -14 77 -30
33 -16 66 -30 73 -30 6 0 12 -4 12 -10 0 -14 347 -14 355 0 3 5 28 10 54 10
31 0 53 5 61 15 7 8 19 15 27 15 25 0 94 40 123 73 21 23 31 47 36 86 8 68 -9
106 -98 215 -18 21 -25 40 -22 53 3 12 0 31 -6 43 -10 19 -9 26 8 42 15 15 34
20 81 22 33 0 61 4 61 8 0 4 26 19 58 33 31 14 64 30 72 35 8 5 48 25 88 44
100 49 157 89 224 157 31 33 64 59 72 59 16 0 119 94 111 102 -2 2 6 5 17 5
12 1 34 11 49 23 16 11 32 20 37 20 4 0 23 16 42 35 19 19 39 35 45 35 6 0 37
27 70 61 33 33 76 68 95 77 19 9 44 24 54 34 11 10 26 18 33 18 7 0 28 14 46
30 19 17 39 30 43 30 5 0 22 11 37 25 15 14 27 22 27 18 0 -4 24 15 53 43 63
60 116 89 178 97 41 6 149 54 174 78 5 5 19 9 32 9 13 0 23 5 23 11 0 6 7 9
15 5 9 -3 25 5 39 20 13 15 26 22 30 16 7 -11 86 -4 101 9 5 5 19 9 31 9 13 0
26 4 29 10 3 6 19 10 35 10 16 0 32 5 35 10 3 6 17 10 30 10 19 0 23 4 18 17
-4 10 -2 14 4 10 14 -9 44 2 37 14 -3 5 8 6 23 3 22 -4 51 6 117 40 49 25 99
46 112 46 12 0 26 5 29 10 3 6 17 10 29 10 13 0 29 7 36 15 7 8 22 15 34 15
25 0 71 29 46 30 -12 0 -12 2 -1 13 10 9 15 9 18 1 2 -7 14 -9 25 -6 21 5 21
6 2 13 -14 6 -9 8 19 8 20 1 37 6 37 11 0 6 9 10 20 10 11 0 38 11 60 25 22
14 49 25 59 25 11 0 36 9 56 20 20 11 44 20 55 20 10 0 22 4 25 10 3 6 15 10
26 10 10 0 24 9 31 20 7 11 21 20 30 20 10 0 18 7 18 17 0 12 3 14 10 7 8 -8
30 -1 73 20 34 17 64 34 65 39 2 4 8 7 14 7 5 0 16 6 23 13 25 22 41 32 54 35
25 5 160 73 167 83 3 5 30 21 59 35 30 13 56 28 60 33 3 6 25 20 49 31 23 12
56 34 72 48 16 15 36 28 44 30 8 2 17 8 18 13 2 5 8 9 14 9 15 0 119 85 108
88 -20 7 -9 22 13 17 15 -4 30 2 47 17 14 13 39 31 55 40 17 9 31 26 33 38 2
13 10 20 20 18 9 -1 24 2 32 7 8 6 22 14 31 20 9 5 28 19 43 29 25 17 33 18
94 7 127 -22 177 -28 180 -19 6 13 24 9 36 -7 9 -13 41 -16 176 -17 122 -1
147 -4 95 -8 -44 -4 12 -7 152 -8 139 -1 224 2 228 8 4 6 60 10 136 10 107 0
131 3 135 15 5 13 20 14 85 9 48 -4 83 -3 91 3 7 6 59 13 116 15 58 3 108 10
115 17 6 6 32 11 58 11 26 0 51 5 54 10 3 6 28 10 56 10 27 0 49 5 49 10 0 6
22 10 49 10 28 0 53 5 56 10 3 5 18 11 33 11 17 1 21 3 10 6 -10 2 -18 9 -18
13 0 6 40 7 94 3 52 -3 102 -2 113 2 32 14 47 17 101 22 28 3 52 9 52 15 0 7
5 7 13 -1 17 -13 38 5 30 25 -6 16 13 17 94 8 29 -4 50 -11 47 -15 -3 -5 11
-9 30 -9 19 0 38 -4 41 -10 3 -5 21 -10 39 -10 23 0 41 -9 64 -33 27 -27 32
-41 32 -79 0 -26 5 -50 10 -53 6 -4 10 -57 10 -125 0 -68 -4 -121 -10 -125 -5
-3 -10 -28 -10 -55 0 -27 -5 -52 -10 -55 -6 -4 -8 -11 -5 -16 4 -5 -3 -22 -14
-38 -12 -16 -21 -41 -21 -55 0 -14 -4 -26 -10 -26 -5 0 -10 -8 -10 -18 0 -10
-12 -29 -26 -43 -14 -13 -35 -42 -46 -64 -24 -47 -66 -95 -85 -95 -15 0 -15
-3 -13 -81 1 -32 -3 -60 -8 -63 -6 -3 -8 -15 -5 -25 3 -10 0 -22 -6 -25 -6 -4
-11 -29 -11 -56 0 -27 -5 -52 -10 -55 -6 -4 -10 -135 -10 -360 0 -195 -4 -356
-8 -359 -4 -2 -9 -22 -10 -42 -2 -21 -7 -41 -12 -44 -5 -3 -12 -25 -16 -48 -4
-23 -11 -45 -15 -48 -5 -3 -9 -32 -9 -64 0 -35 -5 -60 -11 -62 -9 -3 -9 -9 0
-25 6 -12 11 -42 11 -66 0 -26 6 -49 14 -56 8 -7 26 -35 40 -64 14 -29 41 -68
61 -87 24 -23 35 -43 35 -62 0 -27 -43 -135 -82 -207 -15 -25 -16 -36 -7 -47
7 -9 10 -40 7 -83 -2 -38 -1 -68 3 -65 9 5 89 -54 89 -67 0 -6 20 -8 59 -3 37
4 66 2 79 -5 15 -8 120 -12 319 -14 287 -2 410 -13 438 -38 13 -13 505 -12
505 1 0 6 15 10 33 10 39 0 77 34 77 68 0 12 6 22 13 22 13 0 17 96 4 116 -3
6 -27 12 -53 12 -25 1 -51 5 -58 9 -6 4 -15 8 -21 8 -5 0 -35 12 -65 26 -30
15 -81 37 -114 50 -32 12 -78 39 -101 58 -83 70 -160 129 -197 151 -21 12 -38
26 -38 30 0 5 -14 23 -32 39 -18 17 -30 32 -27 35 3 3 29 6 57 7 29 1 55 6 58
11 3 4 13 8 23 8 20 0 85 63 75 73 -4 4 10 25 30 47 20 22 36 48 36 58 0 9 9
28 20 42 11 14 20 30 20 35 0 6 11 19 25 29 13 10 22 23 19 27 -9 15 -4 393 5
399 5 3 9 46 10 95 1 50 6 94 12 99 5 6 9 55 9 111 0 63 4 105 12 113 6 6 12
33 13 59 1 26 7 66 13 88 6 22 12 61 13 88 2 26 6 47 10 47 4 0 10 24 13 53 9
92 18 137 27 143 5 3 9 27 9 54 0 27 5 52 10 55 6 3 10 21 10 40 0 19 5 37 11
40 6 4 8 14 4 23 -3 8 -1 18 5 22 5 3 10 27 11 53 1 26 6 47 11 47 4 0 8 14 8
30 0 17 4 30 8 30 4 0 9 17 10 37 2 21 7 42 12 47 6 6 10 27 10 47 0 21 4 41
10 44 5 3 10 26 10 50 0 24 5 47 10 50 8 5 7 11 -1 21 -9 11 -8 14 4 14 10 0
17 14 21 42 3 24 9 68 14 98 6 30 13 79 17 108 4 29 12 55 16 58 13 7 11 331
-1 339 -5 3 -10 19 -10 34 0 35 -23 93 -44 110 -9 7 -14 17 -11 21 3 4 -2 13
-10 20 -9 7 -23 28 -31 46 -18 37 -128 144 -148 144 -7 0 -23 11 -36 25 -12
13 -27 22 -33 18 -6 -3 -7 -1 -3 5 6 10 -79 81 -131 109 -12 6 -35 18 -50 27
-42 23 -173 81 -215 95 -21 7 -38 17 -38 22 0 5 -18 9 -39 9 -22 0 -43 5 -46
10 -3 6 -35 10 -71 10 -36 0 -73 4 -83 10 -10 5 -52 10 -94 11 -42 1 -74 6
-71 10 3 5 -23 9 -58 9 -35 0 -69 5 -74 10 -6 6 -55 11 -110 12 -56 1 -88 4
-74 8 39 11 -68 22 -172 18 -64 -2 -89 0 -93 10 -2 7 -22 12 -45 12 -22 0 -49
5 -60 10 -11 6 -29 15 -40 20 -11 6 -29 10 -39 10 -11 0 -22 4 -25 9 -3 5 -26
14 -50 20 -24 6 -51 18 -60 26 -8 9 -41 29 -72 45 -56 30 -57 30 -228 30
l-172 0 -37 38 c-20 21 -37 43 -37 48 0 6 -9 19 -20 29 -25 22 -26 45 -2 45
21 0 215 194 234 235 8 17 13 38 11 48 -3 9 0 17 6 17 6 0 11 20 11 45 0 26
-5 45 -11 45 -6 0 -9 9 -6 19 6 23 -32 61 -80 82 -33 14 -44 29 -20 29 7 0 46
34 87 75 41 41 80 75 87 75 6 0 25 11 41 25 17 14 34 25 39 25 5 0 38 30 75
68 58 59 77 88 78 115 0 4 9 16 20 27 11 11 20 33 20 49 0 16 5 31 10 33 6 2
12 16 14 31 1 15 6 30 9 34 4 3 7 21 7 40 0 36 18 119 31 145 5 10 9 35 9 56
0 21 5 43 11 49 6 6 12 35 14 64 1 30 8 67 14 82 6 16 11 48 11 72 0 41 3 45
36 61 35 17 37 17 87 -10 29 -14 60 -26 69 -26 9 0 18 -6 20 -12 3 -7 19 -12
39 -11 25 2 29 0 15 -6 -19 -7 -19 -8 2 -13 12 -4 22 -2 22 3 0 12 107 12 114
0 3 -4 18 -6 33 -3 25 5 25 6 8 13 -14 5 -3 8 33 8 29 1 51 4 49 9 -3 4 9 8
26 9 38 3 138 53 131 65 -3 5 -2 8 3 7 27 -5 42 2 36 17 -5 13 -2 15 16 9 17
-5 30 0 52 21 15 15 26 31 23 36 -3 4 -1 8 3 8 19 0 123 88 123 104 0 7 9 21
20 31 11 10 20 22 20 27 0 6 9 21 20 35 11 14 17 29 14 34 -3 5 -1 9 4 9 11 0
72 121 72 143 0 8 6 19 13 25 7 6 24 33 37 61 16 32 31 51 43 51 9 0 17 4 17
9 0 5 10 11 22 13 12 2 25 12 28 23 4 17 14 20 70 22 108 3 118 6 175 63 30
29 52 56 50 60 -2 4 3 19 11 34 7 16 14 38 14 50 0 34 42 53 84 38 41 -15 69
-15 83 -1 7 7 46 14 88 17 41 2 78 9 81 13 3 5 32 9 65 9 38 0 58 4 54 10 -6
10 25 15 80 11 21 -1 26 1 16 7 -10 7 -10 11 -1 17 6 4 14 5 16 2 6 -6 192 88
215 108 8 8 20 15 26 15 5 0 20 11 33 25 13 14 30 25 38 25 8 0 24 11 36 24
29 34 131 86 168 86 16 0 27 3 25 8 -3 4 11 8 31 10 20 1 41 7 46 12 6 6 20
10 32 10 13 0 26 5 29 10 3 6 15 10 25 10 18 0 109 36 152 60 10 6 22 10 28
10 18 0 110 44 110 52 0 5 4 7 8 4 9 -5 240 107 286 139 57 40 116 98 109 108
-3 5 -1 7 4 4 11 -7 36 18 46 46 6 15 20 17 111 17 59 0 108 4 111 10 3 6 30
10 58 10 39 0 68 9 117 34 102 52 141 72 195 97 28 13 70 37 95 54 24 16 50
32 57 35 21 9 243 232 243 245 0 6 8 19 18 29 11 9 25 34 32 56 13 41 13 41
-26 81 -58 60 -84 69 -190 69 -69 0 -96 -4 -108 -15 -16 -16 -36 -20 -36 -6 0
11 -99 1 -125 -12 -27 -15 -105 -28 -197 -34 -70 -4 -80 -2 -118 22 -23 15
-51 25 -61 22 -10 -3 -20 0 -21 5 -4 12 -73 25 -105 20 -13 -2 -23 -11 -23
-20 0 -15 -2 -15 -10 -2 -8 12 -15 9 -43 -18 -18 -17 -42 -32 -54 -32 -11 0
-26 -7 -33 -15 -7 -9 -34 -25 -59 -37 -57 -26 -131 -101 -131 -133 0 -13 -4
-26 -10 -30 -5 -3 -7 -12 -4 -19 3 -8 -8 -30 -25 -49 -17 -19 -31 -39 -31 -44
0 -22 -38 -43 -78 -43 -23 0 -42 -4 -42 -8 0 -4 -16 -8 -36 -9 -20 -1 -39 -5
-43 -10 -3 -4 -15 -10 -26 -11 -11 -2 -24 -8 -30 -13 -5 -5 -19 -9 -31 -9 -13
0 -29 -7 -38 -15 -8 -8 -21 -15 -30 -15 -8 0 -18 -4 -21 -10 -3 -5 -41 -10
-84 -10 -42 0 -81 -4 -86 -9 -17 -16 -126 -25 -530 -45 -71 -4 -146 -11 -165
-16 -19 -5 -54 -11 -78 -14 -24 -2 -49 -9 -55 -15 -6 -6 -32 -11 -58 -11 -26
0 -51 -4 -54 -10 -3 -5 -31 -10 -60 -10 -36 0 -67 -7 -90 -20 -20 -11 -45 -20
-56 -20 -11 0 -17 -4 -14 -10 3 -5 0 -7 -9 -4 -8 3 -19 -3 -26 -15 -6 -12 -16
-21 -23 -21 -15 0 -139 -61 -160 -79 -14 -11 -72 -6 -92 9 -31 24 -107 25
-619 15 -243 -5 -260 -5 -280 13 -19 17 -43 29 -126 64 -14 6 -33 14 -42 19
-10 5 -37 9 -61 9 -24 0 -49 6 -56 13 -11 10 -14 10 -18 0 -3 -7 -9 -13 -14
-13 -6 0 -7 5 -4 10 4 6 -18 10 -59 10 -36 0 -66 -4 -66 -9 0 -5 -30 -9 -67
-10 -38 0 -69 -5 -71 -11 -2 -6 -52 -10 -123 -10 l-119 0 0 39 c0 22 5 43 10
46 6 3 10 17 10 30 0 36 48 55 141 55 43 0 81 -4 84 -10 3 -5 21 -10 40 -10
19 0 37 -4 40 -10 3 -5 37 -10 74 -10 72 0 100 15 102 56 0 18 1 18 8 -1 8
-20 8 -20 15 1 3 12 15 29 26 39 19 17 20 32 20 205 0 131 -4 190 -12 198 -9
9 -4 20 23 48 22 24 30 38 22 41 -15 6 -17 33 -3 33 6 0 10 11 10 24 0 14 -4
28 -10 31 -5 3 -10 24 -10 45 0 21 -4 42 -10 45 -5 3 -10 26 -10 50 0 24 -4
47 -10 50 -5 3 -10 24 -10 45 0 21 -4 42 -10 45 -5 3 -10 15 -10 26 0 11 -7
31 -16 45 -9 13 -14 27 -11 31 4 3 -5 25 -18 50 -14 24 -25 59 -25 78 0 19 -4
35 -10 35 -5 0 -10 18 -10 39 0 22 -4 43 -10 46 -5 3 -10 19 -10 36 0 16 -4
29 -8 29 -13 0 -12 39 3 66 7 15 11 33 8 40 -3 8 0 14 7 14 16 0 10 60 -9 83
-8 9 -24 17 -37 17 -13 0 -26 5 -29 10 -3 6 -19 10 -35 10 -15 0 -30 5 -32 11
-2 6 -15 12 -30 12 -14 1 -24 4 -22 6 7 7 -55 41 -76 41 -10 0 -22 5 -25 10
-3 6 -19 10 -35 10 -16 0 -32 5 -35 10 -3 6 -17 10 -30 10 -13 0 -27 5 -30 10
-3 6 -16 10 -28 10 -12 0 -31 7 -41 15 -11 8 -39 15 -63 15 -24 0 -43 5 -43
10 0 6 -20 10 -44 10 -25 0 -47 4 -50 9 -9 13 -316 14 -316 1 0 -12 -42 -13
-55 -1 -6 5 -22 1 -40 -9z m5262 -1246 c-3 -3 -12 -4 -19 -1 -8 3 -5 6 6 6 11
1 17 -2 13 -5z m-4030 -141 c-2 -16 -4 -3 -4 27 0 30 2 43 4 28 2 -16 2 -40 0
-55z m0 -255 c-2 -18 -4 -6 -4 27 0 33 2 48 4 33 2 -15 2 -42 0 -60z m2241
-155 c-10 -2 -26 -2 -35 0 -10 3 -2 5 17 5 19 0 27 -2 18 -5z m-1401 -209 c-3
-3 -12 -4 -19 -1 -8 3 -5 6 6 6 11 1 17 -2 13 -5z m226 -1 c-7 -2 -21 -2 -30
0 -10 3 -4 5 12 5 17 0 24 -2 18 -5z m-306 -1628 c-9 -8 -22 -15 -29 -15 -7 0
-2 9 12 20 28 21 40 19 17 -5z m-747 -70 c-7 -8 -17 -15 -22 -15 -6 0 -5 7 2
15 7 8 17 15 22 15 6 0 5 -7 -2 -15z m-560 -1084 c0 -5 -13 -19 -30 -31 -35
-25 -39 -16 -8 17 22 24 38 30 38 14z m2427 -1808 c-2 -16 -4 -5 -4 22 0 28 2
40 4 28 2 -13 2 -35 0 -50z m0 -220 c-2 -16 -4 -3 -4 27 0 30 2 43 4 28 2 -16
2 -40 0 -55z m-4019 -330 c-10 -2 -28 -2 -40 0 -13 2 -5 4 17 4 22 1 32 -1 23
-4z m1569 1 c-3 -3 -12 -4 -19 -1 -8 3 -5 6 6 6 11 1 17 -2 13 -5z m-699 -71
c-21 -2 -55 -2 -75 0 -21 2 -4 4 37 4 41 0 58 -2 38 -4z m-4338 -1777 c0 -2
-7 -7 -16 -10 -8 -3 -12 -2 -9 4 6 10 25 14 25 6z"/>
<path d="M10068 7713 c7 -3 16 -2 19 1 4 3 -2 6 -13 5 -11 0 -14 -3 -6 -6z"/>
<path d="M8258 3433 c12 -2 30 -2 40 0 9 3 -1 5 -23 4 -22 0 -30 -2 -17 -4z"/>
</g>
</svg>
