<?xml version="1.0" standalone="no"?>
<!DOCTYPE svg PUBLIC "-//W3C//DTD SVG 20010904//EN"
 "http://www.w3.org/TR/2001/REC-SVG-20010904/DTD/svg10.dtd">
<svg version="1.0" xmlns="http://www.w3.org/2000/svg"
 width="500px" height="500px" viewBox="0 0 1129.000000 1280.000000"
 preserveAspectRatio="xMidYMid meet">
<metadata>
Created by potrace 1.15, written by Peter Selinger 2001-2017
</metadata>
<g transform="translate(0.000000,1280.000000) scale(0.100000,-0.100000)"
fill="#000000" stroke="none">
<path d="M6578 12789 c-271 -40 -440 -159 -557 -395 -73 -148 -121 -350 -121
-513 0 -149 19 -214 114 -406 47 -93 106 -228 131 -300 97 -275 113 -301 234
-364 121 -63 173 -139 172 -252 0 -69 -21 -121 -65 -155 -17 -14 -119 -60
-226 -103 -232 -93 -366 -159 -480 -236 -72 -48 -95 -58 -147 -65 -112 -14
-344 -145 -505 -285 -132 -115 -225 -235 -408 -530 -117 -189 -180 -273 -227
-305 -21 -14 -60 -55 -88 -92 -54 -71 -93 -103 -146 -119 -19 -5 -135 -16
-259 -24 -223 -14 -300 -23 -580 -70 -436 -73 -626 -94 -920 -102 -231 -6
-476 6 -663 32 -54 8 -106 11 -115 8 -9 -3 -40 -24 -69 -45 -28 -21 -67 -42
-86 -45 -33 -5 -40 -1 -104 64 -117 118 -249 170 -598 233 -93 17 -204 40
-247 50 -116 30 -152 27 -260 -23 -66 -31 -105 -57 -134 -89 -55 -59 -92 -124
-100 -175 -6 -39 -5 -42 19 -48 14 -4 57 -2 96 4 91 14 177 13 221 -2 19 -7
76 -40 125 -74 100 -67 181 -111 236 -127 l37 -11 -44 -38 c-43 -38 -47 -39
-127 -41 -66 -1 -93 -7 -139 -30 -53 -25 -98 -66 -98 -88 0 -15 81 -45 170
-63 47 -9 117 -26 155 -38 82 -26 237 -28 295 -5 64 26 115 56 144 87 21 21
36 29 50 25 12 -3 50 4 86 15 105 33 139 29 199 -25 27 -25 65 -49 83 -55 87
-25 387 -84 708 -139 535 -91 708 -127 975 -200 151 -42 364 -80 448 -80 26 0
47 -2 47 -5 0 -3 -16 -26 -37 -52 -123 -162 -131 -328 -18 -387 35 -18 57 -21
170 -21 72 0 145 3 162 7 l33 7 65 -132 c41 -81 69 -151 73 -182 7 -49 8 -50
57 -67 162 -55 399 28 637 224 67 55 68 56 164 68 92 11 97 11 118 -9 20 -19
28 -20 74 -11 82 15 169 38 270 72 51 16 95 28 98 25 3 -2 -7 -91 -22 -196
-31 -224 -42 -192 102 -303 l92 -71 -26 -34 c-40 -49 -291 -187 -432 -235
-782 -270 -1396 -573 -1865 -922 -109 -80 -172 -117 -385 -223 -669 -334 -710
-367 -871 -708 -103 -219 -158 -376 -299 -865 -93 -321 -177 -576 -228 -695
-35 -82 -62 -202 -62 -279 0 -74 20 -174 70 -346 73 -252 83 -308 84 -480 1
-91 -5 -190 -13 -239 -14 -83 -18 -91 -178 -357 -180 -301 -193 -315 -358
-425 -175 -117 -441 -238 -709 -325 -144 -46 -476 -134 -509 -134 -30 0 -67
-45 -67 -82 0 -52 18 -103 46 -132 l27 -26 1099 0 c1236 0 1134 -7 1208 77 64
73 110 226 110 364 l0 70 -48 20 c-140 60 -218 115 -272 194 l-29 43 45 218
c24 121 52 255 62 298 l17 80 49 12 c162 42 263 132 413 369 130 205 133 208
262 340 254 261 312 397 376 875 40 300 59 393 121 582 35 106 36 107 71 114
26 5 46 2 70 -12 47 -25 59 -15 116 94 42 82 51 92 80 96 17 3 104 17 192 31
569 90 1099 258 2058 652 190 78 352 138 385 143 39 7 105 5 206 -4 82 -7 157
-11 166 -9 33 9 210 -17 292 -43 89 -28 233 -100 332 -166 34 -23 155 -113
271 -201 253 -194 373 -274 501 -333 129 -60 219 -82 388 -94 213 -15 256 -22
256 -43 0 -5 -13 -31 -29 -56 -17 -25 -34 -65 -39 -87 -8 -38 -2 -127 10 -139
3 -3 36 2 74 11 93 21 158 15 192 -20 25 -24 27 -33 26 -99 -1 -57 -9 -93 -39
-172 -160 -429 -188 -611 -167 -1082 14 -310 14 -307 130 -472 98 -138 110
-160 132 -244 l19 -76 -39 -178 c-22 -98 -51 -201 -64 -230 -33 -69 -137 -178
-224 -233 l-70 -45 -51 -130 c-28 -72 -60 -157 -71 -189 l-20 -60 40 -41 c113
-115 315 -181 660 -216 138 -14 595 -17 1324 -9 l459 6 64 68 c112 118 124
154 71 211 l-33 34 -220 31 c-121 17 -279 42 -351 56 -577 105 -865 286 -891
557 -6 70 -2 96 58 317 49 177 85 248 279 545 147 225 235 381 273 483 18 51
21 89 28 337 7 261 18 398 55 684 36 279 46 418 47 601 0 202 -11 318 -45 480
-31 148 -60 193 -227 360 -237 237 -348 319 -899 669 -528 335 -687 451 -883
643 -124 120 -191 206 -287 364 -43 71 -94 153 -112 182 -38 60 -42 113 -15
212 23 85 42 105 104 106 73 2 90 22 141 162 51 139 164 387 365 797 307 627
433 941 501 1255 26 119 26 419 1 540 -25 117 -59 208 -113 309 -92 170 -138
225 -238 285 -103 62 -214 90 -481 121 -236 28 -302 46 -498 140 -59 28 -104
57 -114 72 -13 19 -18 62 -24 185 -6 141 -5 169 12 232 34 131 21 440 -31 690
-49 238 -109 447 -163 568 -92 206 -274 385 -446 439 -139 43 -334 59 -473 38z
m-912 -4426 c39 -95 70 -278 76 -451 l3 -93 -210 -78 c-340 -126 -395 -152
-430 -202 -26 -36 -44 -48 -115 -76 -99 -38 -95 -38 -211 -17 l-88 16 44 45
c24 24 57 63 72 86 19 27 69 70 145 123 335 233 616 504 678 654 7 16 14 30
16 30 2 0 11 -17 20 -37z"/>
</g>
</svg>
